<svg xmlns="http://www.w3.org/2000/svg" xmlns:xlink="http://www.w3.org/1999/xlink" width="2000" zoomAndPan="magnify" viewBox="0 0 1500 1499.999933" height="2000" preserveAspectRatio="xMidYMid meet" version="1.0"><defs><g/></defs><g fill="#dbccaf" fill-opacity="1"><g transform="translate(-26.499456, 1093.089531)"><g><path d="M 847.796875 -631.28125 L 915.609375 0 L 690.40625 0 L 676.5 -450.421875 L 589.546875 0 L 361.71875 0 L 273.03125 -446.9375 L 259.984375 0 L 34.78125 0 L 102.609375 -631.28125 L 398.25 -631.28125 L 473.890625 -219.984375 L 539.984375 -631.28125 Z M 847.796875 -631.28125 "/></g></g></g><g fill="#dbccaf" fill-opacity="1"><g transform="translate(749.993552, 1093.089531)"><g><path d="M 313.03125 -640.84375 C 422.007812 -640.84375 508.09375 -627.65625 571.28125 -601.28125 C 634.46875 -574.90625 678.664062 -538.382812 703.875 -491.71875 C 729.09375 -445.050781 741.703125 -387.804688 741.703125 -319.984375 C 741.703125 -255.640625 727.207031 -199.410156 698.21875 -151.296875 C 669.238281 -103.179688 625.765625 -65.9375 567.796875 -39.5625 C 509.828125 -13.1875 438.53125 0 353.90625 0 C 302.3125 0 249.847656 0 196.515625 0 C 143.179688 0 89.269531 -0.289062 34.78125 -0.875 C 39.414062 -115.070312 41.734375 -221.441406 41.734375 -319.984375 C 41.734375 -419.691406 39.414062 -523.75 34.78125 -632.15625 C 103.757812 -637.945312 196.507812 -640.84375 313.03125 -640.84375 Z M 378.25 -173.03125 C 432.15625 -173.03125 468.09375 -186.070312 486.0625 -212.15625 C 504.03125 -238.25 513.015625 -274.191406 513.015625 -319.984375 C 513.015625 -364.046875 503.59375 -399.695312 484.75 -426.9375 C 465.914062 -454.1875 430.414062 -467.8125 378.25 -467.8125 C 322.019531 -467.8125 279.988281 -466.070312 252.15625 -462.59375 L 252.15625 -173.03125 Z M 378.25 -173.03125 "/></g></g></g><g fill="#ff5757" fill-opacity="1"><g transform="translate(1158.856398, 1105.175981)"><g><path d="M 302.96875 11.515625 L 18.171875 11.515625 L 18.171875 -112.09375 L 302.96875 -112.09375 Z M 302.96875 11.515625 "/></g></g></g></svg>